<svg width="26" height="18" viewBox="0 0 26 18" fill="none" xmlns="http://www.w3.org/2000/svg">
<path d="M2.15039 8.99998L1.47719 8.32678L0.803982 8.99998L1.47719 9.67319L2.15039 8.99998ZM24.9997 9.95204C25.5255 9.95204 25.9518 9.52579 25.9518 8.99998C25.9518 8.47418 25.5255 8.04793 24.9997 8.04793V8.99998V9.95204ZM9.76683 1.38354L9.09362 0.71034L1.47719 8.32678L2.15039 8.99998L2.8236 9.67319L10.44 2.05675L9.76683 1.38354ZM2.15039 8.99998L1.47719 9.67319L9.09362 17.2896L9.76683 16.6164L10.44 15.9432L2.8236 8.32678L2.15039 8.99998ZM2.15039 8.99998V9.95204H24.9997V8.99998V8.04793H2.15039V8.99998Z" fill="white"/>
</svg>
