<?xml version="1.0" encoding="utf-8"?>
<!-- Generator: Adobe Illustrator 23.0.1, SVG Export Plug-In . SVG Version: 6.00 Build 0)  -->
<svg version="1.1" id="Layer_1" xmlns="http://www.w3.org/2000/svg" xmlns:xlink="http://www.w3.org/1999/xlink" x="0px" y="0px"
	 viewBox="0 0 80 80" style="enable-background:new 0 0 80 80;" xml:space="preserve">
<style type="text/css">
	.st0{fill:#4E5293;}
	.st1{fill:#EC9BAE;}
	.st2{fill:#FFDC7C;}
	.st3{fill:#CDD5DD;}
	.st4{fill:#D9E0E7;}
</style>
<g>
	<path class="st0" d="M70.8,17.8c-1.6-1.6-4.3-1.6-5.9,0c-0.8,0.8-1.2,1.8-1.2,3c0,1.1,0.4,2.2,1.2,3c4.3,4.3,6.7,10.1,6.7,16.3
		s-2.4,11.9-6.7,16.3c-0.8,0.8-1.2,1.8-1.2,3c0,1.1,0.4,2.2,1.2,3c0.8,0.8,1.8,1.2,3,1.2c1.1,0,2.2-0.4,3-1.2
		C76.7,56.3,80,48.4,80,40S76.7,23.7,70.8,17.8z M69.6,61C68.7,62,67,62,66.1,61c-0.5-0.5-0.7-1.1-0.7-1.8c0-0.7,0.3-1.3,0.7-1.8
		c4.7-4.7,7.2-10.9,7.2-17.5s-2.6-12.8-7.2-17.5c-0.5-0.5-0.7-1.1-0.7-1.8s0.3-1.3,0.7-1.8c0.5-0.5,1.1-0.7,1.8-0.7
		c0.6,0,1.3,0.2,1.8,0.7c5.6,5.6,8.7,13.1,8.7,21C78.3,47.9,75.2,55.4,69.6,61z"/>
	<path class="st1" d="M78.3,40c0,7.9-3.1,15.4-8.7,21c-1,0.9-2.6,0.9-3.6,0c-0.5-0.5-0.7-1.1-0.7-1.8c0-0.7,0.3-1.3,0.7-1.8
		c4.7-4.7,7.2-10.9,7.2-17.5s-2.6-12.8-7.2-17.5c-0.5-0.5-0.7-1.1-0.7-1.8s0.3-1.3,0.7-1.8c0.5-0.5,1.1-0.7,1.8-0.7
		c0.6,0,1.3,0.2,1.8,0.7C75.2,24.6,78.3,32.1,78.3,40z"/>
	<path class="st0" d="M61.4,27.4c-1.6-1.6-4.3-1.6-5.9,0c-0.8,0.8-1.2,1.8-1.2,3c0,1.1,0.4,2.2,1.2,2.9c3.7,3.7,3.7,9.7,0,13.3
		c-0.8,0.8-1.2,1.8-1.2,3c0,1.1,0.4,2.2,1.2,3c0.8,0.8,1.9,1.2,3,1.2s2.1-0.4,3-1.2c3.4-3.3,5.2-7.8,5.2-12.6S64.7,30.8,61.4,27.4z
		 M60.2,51.4c-1,1-2.6,1-3.5,0c-0.5-0.5-0.7-1.1-0.7-1.8c0-0.7,0.3-1.3,0.7-1.8c4.3-4.3,4.3-11.3,0-15.7c-0.5-0.5-0.7-1.1-0.7-1.8
		c0-0.7,0.3-1.3,0.7-1.8c0.5-0.5,1.1-0.7,1.8-0.7c0.6,0,1.3,0.3,1.8,0.7c3,3,4.7,7.1,4.7,11.4S63.2,48.4,60.2,51.4z"/>
	<path class="st1" d="M64.9,40c0,4.3-1.7,8.4-4.7,11.4c-1,1-2.6,1-3.5,0c-0.5-0.5-0.7-1.1-0.7-1.8c0-0.7,0.3-1.3,0.7-1.8
		c4.3-4.3,4.3-11.3,0-15.7c-0.5-0.5-0.7-1.1-0.7-1.8c0-0.7,0.3-1.3,0.7-1.8c0.5-0.5,1.1-0.7,1.8-0.7c0.6,0,1.3,0.3,1.8,0.7
		C63.2,31.6,64.9,35.7,64.9,40z"/>
	<path class="st0" d="M43,27.4V6.9c0-0.9-0.5-1.7-1.3-2c-0.8-0.4-1.7-0.3-2.4,0.3L17.2,23.3H3.9c-2.1,0-3.9,1.7-3.9,3.9V53
		c0,2.1,1.7,3.9,3.9,3.9h13.3l22.2,18c0.4,0.3,0.9,0.5,1.4,0.5c0.3,0,0.6-0.1,1-0.2c0.8-0.4,1.3-1.1,1.3-2V49.4
		c5.7-0.4,10.2-5.2,10.2-11C53.2,32.6,48.7,27.8,43,27.4z M16.6,55.2H3.9c-1.2,0-2.2-1-2.2-2.2V27.2c0-1.2,1-2.2,2.2-2.2h12.8
		C16.6,25,16.6,55.2,16.6,55.2z M41.3,73.1c0,0.3-0.2,0.5-0.3,0.5c-0.1,0.1-0.3,0.1-0.6-0.1L18.3,55.6v-31L40.4,6.5
		c0.3-0.2,0.5-0.1,0.6-0.1c0.1,0,0.3,0.2,0.3,0.5C41.3,6.9,41.3,73.1,41.3,73.1z M43,47.7V29.1c4.8,0.4,8.5,4.4,8.5,9.3
		C51.5,43.3,47.8,47.3,43,47.7z"/>
	<path class="st2" d="M51.5,38.4c0,4.9-3.8,8.9-8.5,9.3V29.1C47.8,29.5,51.5,33.5,51.5,38.4z"/>
	<path class="st3" d="M16.6,25v30.2H3.9c-1.2,0-2.2-1-2.2-2.2V27.2c0-1.2,1-2.2,2.2-2.2H16.6z"/>
	<path class="st4" d="M41.3,6.9v66.2c0,0.3-0.2,0.5-0.3,0.5c-0.1,0.1-0.3,0.1-0.6-0.1L18.3,55.6v-31L40.4,6.5
		c0.3-0.2,0.5-0.1,0.6-0.1S41.3,6.6,41.3,6.9z"/>
</g>
</svg>
