<?xml version="1.0" encoding="utf-8"?>
<!-- Generator: Adobe Illustrator 23.0.1, SVG Export Plug-In . SVG Version: 6.00 Build 0)  -->
<svg version="1.1" id="Layer_1" xmlns="http://www.w3.org/2000/svg" xmlns:xlink="http://www.w3.org/1999/xlink" x="0px" y="0px"
	 viewBox="0 0 80 80" style="enable-background:new 0 0 80 80;" xml:space="preserve">
<style type="text/css">
	.st0{fill:#319B5C;}
	.st1{fill:#207244;}
	.st2{fill:#FFFFFF;}
	.st3{fill:#FBFDFC;}
</style>
<g>
	<rect x="41.9" y="1.5" class="st0" width="5.6" height="78.1"/>
	<path class="st1" d="M0.3,8.6l0.3,63.5l41.1,7.5h0.2V1.5L0.3,8.6z M27.4,54.9l-4.6-11.5l-4.2,10.4h-6.2l7-13.8l-6.6-13.8l6.1-0.3
		l4,10.4l4.5-11l6.2-0.2l-7.3,14.9l7.5,14.9H27.4z"/>
	<path class="st1" d="M80.3,11.9v56.2c0,1.7-1.4,3.1-3.1,3.1H47.5v-2.5h30V11.2h-30V8.8h29.6C78.9,8.8,80.3,10.2,80.3,11.9z"/>
	<path class="st2" d="M47.5,11.2v5.4h7.4v6h-7.4v4.1h7.4v6h-7.4v4.1h7.4v6h-7.4v4.1h7.4v6h-7.4v4.1h7.4v6h-7.4v5.9h30V11.2H47.5z
		 M71.1,62.8H58.7v-6.3h12.4V62.8z M71.1,52.9H58.7v-6.3h12.4V52.9z M71.1,43H58.7v-6.3h12.4V43z M71.1,33.1H58.7v-6.3h12.4V33.1z
		 M71.1,23.2H58.7v-6.3h12.4V23.2z"/>
	<rect x="58.7" y="16.9" class="st1" width="12.4" height="6.3"/>
	<rect x="58.7" y="26.8" class="st1" width="12.4" height="6.3"/>
	<rect x="58.7" y="36.7" class="st1" width="12.4" height="6.3"/>
	<rect x="58.7" y="46.6" class="st1" width="12.4" height="6.3"/>
	<rect x="58.7" y="56.6" class="st1" width="12.4" height="6.3"/>
	<rect x="47.5" y="56.9" class="st1" width="7.4" height="6"/>
	<rect x="47.5" y="46.8" class="st1" width="7.4" height="6"/>
	<rect x="47.5" y="36.7" class="st1" width="7.4" height="6"/>
	<rect x="47.5" y="26.7" class="st1" width="7.4" height="6"/>
	<rect x="47.5" y="16.6" class="st1" width="7.4" height="6"/>
	<polygon class="st3" points="33.8,54.9 27.4,54.9 22.7,43.3 18.5,53.8 12.3,53.8 19.4,39.9 12.8,26.2 18.9,25.8 22.9,36.2 
		27.4,25.3 33.6,25 26.2,39.9 	"/>
</g>
</svg>
