<?xml version="1.0" encoding="utf-8"?>
<!-- Generator: Adobe Illustrator 23.0.1, SVG Export Plug-In . SVG Version: 6.00 Build 0)  -->
<svg version="1.1" id="Layer_1" xmlns="http://www.w3.org/2000/svg" xmlns:xlink="http://www.w3.org/1999/xlink" x="0px" y="0px"
	 viewBox="0 0 80 80" style="enable-background:new 0 0 80 80;" xml:space="preserve">
<style type="text/css">
	.st0{fill:#F7F7F7;}
	.st1{fill:none;}
	.st2{fill:#1F1F1F;}
	.st3{fill:#B4B6B7;}
</style>
<rect class="st0" width="80" height="80"/>
<path class="st1" d="M41.7,38.2L41.7,38.2C41.7,38.2,41.7,38.2,41.7,38.2L41.7,38.2z M38.3,41.7L38.3,41.7
	C38.3,41.8,38.3,41.7,38.3,41.7L38.3,41.7z"/>
<g>
	<path class="st2" d="M44.9,20.5h-6.1c-0.3,0-0.6,0.1-0.8,0.3l-2.7,2.7C35.1,23.7,35,24,35,24.3v9.3c0,0.1,0.1,0.2,0.2,0.2h9.7
		c0.1,0,0.2-0.1,0.2-0.2v-13C45,20.6,45,20.5,44.9,20.5z M44.2,33C44.2,33,44.2,33,44.2,33l-8.3,0c0,0,0,0,0,0v-0.1c0,0,0,0,0,0
		c0,0,0,0,0-0.1v-8c0,0,0-0.1,0-0.1c0,0,0,0,0,0v0h0c0,0,0,0,0,0c0,0,0.1,0,0.1,0h2.5c0.4,0,0.7-0.3,0.7-0.7v-2.6c0,0,0-0.1,0-0.1
		c0,0,0,0,0,0v0h0c0,0,0,0,0,0c0,0,0.1,0,0.1,0H44c0,0,0.1,0,0.1,0c0,0,0,0,0,0h0c0,0,0,0,0,0V33z"/>
	<g>
		<path class="st3" d="M44.2,21.3v11.5c0,0.1-0.1,0.2-0.2,0.2h-8c0,0-0.1,0-0.1,0c0,0,0,0,0,0v-0.1c0,0,0,0,0,0c0,0,0,0,0-0.1v-8
			c0,0,0-0.1,0-0.1c0,0,0,0,0,0v0c0,0,0,0,0,0h0c0,0,0,0,0,0c0,0,0.1,0,0.1,0h2.5c0.4,0,0.7-0.3,0.7-0.7v-2.6c0,0,0-0.1,0-0.1
			c0,0,0,0,0,0v0c0,0,0,0,0,0h0c0,0,0,0,0,0c0,0,0.1,0,0.1,0H44c0,0,0.1,0,0.1,0c0,0,0,0,0,0h0C44.2,21.2,44.2,21.2,44.2,21.3
			C44.2,21.3,44.2,21.3,44.2,21.3z"/>
	</g>
</g>
<g>
	<path d="M35,41.4v-2.6h0.4l0.8,1.3c0.2,0.3,0.3,0.6,0.5,0.9l0,0c0-0.4,0-0.7,0-1.1v-1.1H37v2.6h-0.3l-0.8-1.3
		c-0.2-0.3-0.4-0.6-0.5-0.9l0,0c0,0.3,0,0.6,0,1.1v1.1H35z"/>
	<path d="M39.3,40.4c0,0.7-0.5,1-0.9,1c-0.5,0-0.9-0.4-0.9-1c0-0.6,0.4-1,0.9-1C38.9,39.5,39.3,39.8,39.3,40.4z M37.8,40.4
		c0,0.4,0.2,0.7,0.6,0.7c0.3,0,0.6-0.3,0.6-0.7c0-0.3-0.2-0.7-0.6-0.7C37.9,39.7,37.8,40.1,37.8,40.4z"/>
	<path d="M40.5,41.4v-1.6h-0.3v-0.3h0.3v-0.1c0-0.5,0.3-0.8,0.8-0.8c0.2,0,0.4,0.1,0.5,0.1L41.8,39c-0.1-0.1-0.2-0.1-0.4-0.1
		c-0.4,0-0.5,0.3-0.5,0.6v0.1H42v1.9h-0.3v-1.6h-0.8v1.6H40.5z"/>
	<path d="M42.5,38.6h0.3v2.8h-0.3V38.6z"/>
	<path d="M43.7,40.5c0,0.5,0.3,0.7,0.6,0.7c0.2,0,0.4,0,0.5-0.1l0.1,0.2c-0.1,0.1-0.3,0.1-0.6,0.1c-0.6,0-0.9-0.4-0.9-0.9
		c0-0.6,0.3-1,0.9-1c0.6,0,0.8,0.5,0.8,0.9c0,0.1,0,0.1,0,0.2H43.7z M44.7,40.3c0-0.2-0.1-0.6-0.5-0.6c-0.3,0-0.5,0.3-0.5,0.6H44.7z
		"/>
</g>
</svg>
