<?xml version="1.0" encoding="utf-8"?>
<!-- Generator: Adobe Illustrator 23.0.1, SVG Export Plug-In . SVG Version: 6.00 Build 0)  -->
<svg version="1.1" id="Layer_1" xmlns="http://www.w3.org/2000/svg" xmlns:xlink="http://www.w3.org/1999/xlink" x="0px" y="0px"
	 viewBox="0 0 80 80" style="enable-background:new 0 0 80 80;" xml:space="preserve">
<style type="text/css">
	.st0{fill:#4572B5;}
</style>
<g>
	<path class="st0" d="M52,25.7c-3.1,0-5.6-2.5-5.6-5.6V3.6h-28c-3.6,0-6.4,2.9-6.4,6.4v59.7c0,3.5,2.9,6.4,6.4,6.4h43
		c3.6,0,6.4-2.9,6.4-6.4V25.7H52z M40,66.7c-9.2,0-16.6-7.4-16.6-16.6S30.9,33.5,40,33.5c9.2,0,16.6,7.4,16.6,16.6
		S49.2,66.7,40,66.7z"/>
	<path d="M71,22L49,0.5C48.7,0.2,48.3,0,47.8,0H17.7c-5.2,0-9.5,4.3-9.5,9.5v61.1c0,5.2,4.2,9.5,9.5,9.5h44.7c5.2,0,9.5-4.2,9.5-9.5
		V23.9C71.8,23.2,71.5,22.5,71,22z M50.2,6.6l14.9,15H52c-1,0-1.8-0.8-1.8-1.8V6.6z M67.8,69.7c0,3.5-2.9,6.4-6.4,6.4h-43
		c-3.6,0-6.4-2.9-6.4-6.4V10.1c0-3.6,2.9-6.4,6.4-6.4h28v16.4c0,3.1,2.5,5.6,5.6,5.6h15.9V69.7z"/>
	<path class="st0" d="M65.2,21.7H52c-1,0-1.8-0.8-1.8-1.8V6.6L65.2,21.7z"/>
	<path d="M40,33.5c-9.2,0-16.6,7.4-16.6,16.6c0,9.2,7.4,16.6,16.6,16.6c9.2,0,16.6-7.4,16.6-16.6C56.7,41,49.2,33.5,40,33.5z M40,63
		c-2.8,0-5.4-0.9-7.5-2.4c-1.1-0.8-2-1.7-2.8-2.8c-1.5-2.1-2.4-4.7-2.4-7.5c0-7,5.7-12.7,12.7-12.7c2.8,0,5.4,0.9,7.5,2.5
		c1.1,0.8,2,1.7,2.7,2.8c1.5,2.1,2.4,4.7,2.4,7.4C52.7,57.3,47,63,40,63z"/>
	<path class="st0" d="M47.6,40L29.8,57.8c-1.5-2.1-2.4-4.7-2.4-7.5c0-7,5.7-12.7,12.7-12.7C42.9,37.5,45.5,38.4,47.6,40z"/>
	<path class="st0" d="M52.7,50.2C52.7,57.3,47,63,40,63c-2.8,0-5.4-0.9-7.5-2.4l17.7-17.7C51.8,44.9,52.7,47.5,52.7,50.2z"/>
	<path d="M50.3,42.8L32.6,60.5c-1.1-0.8-2-1.7-2.8-2.8L47.6,40C48.6,40.8,49.5,41.7,50.3,42.8z"/>
</g>
</svg>
