<?xml version="1.0" encoding="utf-8"?>
<!-- Generator: Adobe Illustrator 23.0.1, SVG Export Plug-In . SVG Version: 6.00 Build 0)  -->
<svg version="1.1" id="Layer_1" xmlns="http://www.w3.org/2000/svg" xmlns:xlink="http://www.w3.org/1999/xlink" x="0px" y="0px"
	 viewBox="0 0 80 80" style="enable-background:new 0 0 80 80;" xml:space="preserve">
<style type="text/css">
	.st0{fill:#EFF2F3;}
	.st1{fill:#DADEDE;}
	.st2{fill:#F2786B;}
</style>
<g>
	<path class="st0" d="M72.8,4v61.3H7.3v-48L24.6,0h44.4C71.1,0,72.8,1.9,72.8,4z"/>
	<path class="st1" d="M20.9,17.3H7.4L24.6,0l-0.1,13.5C24.6,15.6,22.9,17.3,20.9,17.3z"/>
	<path class="st2" d="M46.4,35c-3.6-3.5-6.3-7.5-6.3-7.5c1-1.5,3.4-10.1-0.3-12.6c-3.6-2.5-5.5,2.1-5.5,2.1c-1.6,5.7,2.3,11,2.3,11
		l-4.4,9.6c-0.5,0-14.4,5.4-9.6,12c4.9,6.6,11.6-9.4,11.6-9.4c2.6-0.9,10.6-2,10.6-2c3.1,4.3,6.9,5.6,6.9,5.6
		c5.8,1.5,6.4-3.3,6.4-3.3C58.3,34.4,46.4,35,46.4,35z M25.1,47.4c-0.1,0-0.1-0.1-0.1-0.1c-0.8-1.8,5-5.1,5-5.1S26.8,48.1,25.1,47.4
		z M38.1,17.1c1.6,1.5,0.3,6.6,0.3,6.6S36.4,18.6,38.1,17.1z M36.6,36.5l2.3-5.5l3.5,4.2L36.6,36.5z M55.1,40.5L55.1,40.5L55.1,40.5
		L55.1,40.5c-1,1.6-5.1-1.9-5.5-2.2l0,0l0,0l0,0l0,0C50.2,38.3,55.6,38.6,55.1,40.5L55.1,40.5z M72.8,61.3V76c0,2.1-1.8,4-4,4H11.2
		c-2.1,0-4-1.8-4-4V61.3H72.8z"/>
	<path class="st0" d="M34.9,67.8c0,1-0.4,1.8-1,2.4c-0.6,0.5-1.6,0.8-2.9,0.8h-1v3.6h-1.6v-9.6h2.9c1.3,0,2.1,0.3,2.8,0.8
		S34.9,66.8,34.9,67.8z M30.2,69.6h0.9c0.8,0,1.4-0.1,1.7-0.4s0.6-0.8,0.6-1.4c0-0.5-0.1-1-0.5-1.3c-0.4-0.3-0.9-0.4-1.6-0.4h-1.1
		C30.2,66.3,30.2,69.6,30.2,69.6z M44.8,69.6c0,1.6-0.5,2.9-1.4,3.6c-0.9,0.9-2.1,1.3-3.9,1.3h-2.8v-9.6h3c1.5,0,2.8,0.4,3.6,1.3
		C44.3,66.9,44.8,68.1,44.8,69.6z M43.1,69.6c0-2.4-1.1-3.5-3.3-3.5h-1.4v7h1.1C41.9,73.3,43.1,72,43.1,69.6z M48.4,74.5h-1.6v-9.6
		h5.5v1.4h-3.9v3h3.6v1.4h-3.6C48.4,70.6,48.4,74.5,48.4,74.5z"/>
</g>
</svg>
