<?xml version="1.0" encoding="utf-8"?>
<!-- Generator: Adobe Illustrator 23.0.1, SVG Export Plug-In . SVG Version: 6.00 Build 0)  -->
<svg version="1.1" id="Layer_1" xmlns="http://www.w3.org/2000/svg" xmlns:xlink="http://www.w3.org/1999/xlink" x="0px" y="0px"
	 viewBox="0 0 80 80" style="enable-background:new 0 0 80 80;" xml:space="preserve">
<style type="text/css">
	.st0{fill:#34485D;}
	.st1{fill:#2E4957;}
</style>
<g>
	<g>
		<g>
			<g>
				<path class="st0" d="M19.2,74.2H77c1.6,0,3-1.3,3-3V11.9c0-1.6-1.3-3-3-3H48.1c-1.6,0-3,1.3-3,3c0,1.6,1.3,3,3,3H74v53.3H22.1
					V56.1c0-1.6-1.3-3-3-3c-1.6,0-3,1.3-3,3v15C16.2,72.8,17.6,74.2,19.2,74.2z"/>
			</g>
		</g>
	</g>
	<g>
		<path class="st1" d="M40.3,18.6c-0.3-3.3-0.6-7-0.9-11.3l-0.1-1.5h-1.5C29.8,6,24.2,6.1,21.2,6.1c-3.7,0-9.9-0.1-18.5-0.3H1.2
			L1.1,7.3c-0.3,4.2-0.6,8-1,11.4L0,20.2h5.1l0.3-1.1c0.9-3.5,1.2-4.8,1.5-5.3c0.4-1.1,0.8-1.4,0.9-1.4c0,0,0.3-0.2,1.5-0.2h1.2h5.5
			C16,15.9,16,20.1,16,24.6c0,3,0,7.6-0.1,13.8c-0.1,4.8-0.2,6,0,6l0,0c-0.1,0.1-0.8,0.3-4.1,0.9c-0.3,0.1-1,0.2-1.6,0.3L9,46v4.5
			l1.6-0.1c2.9-0.2,5.9-0.3,8.7-0.3c3,0,6.4,0.1,10.3,0.3l1.6,0.1V46l-1.1-0.3c-0.6-0.2-1-0.3-1.3-0.3c-3.5-0.7-4.2-1-4.1-1.1
			c-0.2-2.4-0.3-7.3-0.3-14.4c0-6.9,0.1-12.9,0.2-17.8h5c2.6,0,3.2,0.2,3.3,0.3c0.1,0.1,0.3,0.2,0.5,0.6c0.2,0.3,0.5,1.5,1.7,6.1
			l0.3,1.1h5L40.3,18.6z"/>
	</g>
</g>
</svg>
