<?xml version="1.0" encoding="utf-8"?>
<!-- Generator: Adobe Illustrator 23.0.1, SVG Export Plug-In . SVG Version: 6.00 Build 0)  -->
<svg version="1.1" id="Layer_1" xmlns="http://www.w3.org/2000/svg" xmlns:xlink="http://www.w3.org/1999/xlink" x="0px" y="0px"
	 viewBox="0 0 80 80" style="enable-background:new 0 0 80 80;" xml:space="preserve">
<style type="text/css">
	.st0{fill:#4572B5;}
	.st1{fill:#2A5599;}
	.st2{fill:#207244;}
	.st3{fill:#FFFFFF;}
	.st4{fill:#F5F5F5;}
</style>
<g>
	<rect x="41.6" y="1" class="st0" width="5.6" height="78.1"/>
	<path class="st1" d="M32.7,24.5v1.2l0.6-1.2L32.7,24.5z M32.7,53.4H33l-0.3-0.6V53.4z"/>
	<path class="st1" d="M0,8.1l0.3,63.5L41.4,79h0.2V1L0,8.1z M32.7,24.5l0.6,0l-0.6,1.2V24.5z M32.7,53.4v-0.6l0.3,0.6H32.7z
		 M29.5,51.6h-3.1l-2.9-12c-0.7-2.9-1.2-5.2-1.5-7.5h-0.1c-0.4,2.3-0.9,4.6-1.8,7.5l-3.3,12h-3.1L7.8,28.4H11l2.7,11.7
		c0.7,2.9,1.3,5.8,1.7,8h0.1c0.4-2.3,1.1-5,1.9-8l3.1-11.7h3.1l2.8,11.7c0.7,2.7,1.3,5.5,1.6,7.9h0.1c0.5-2.5,1.1-5.1,1.8-8L33,28.4
		H36L29.5,51.6z"/>
	<path class="st1" d="M80,11.4v56.2c0,1.7-1.4,3.1-3.1,3.1H47.3v-2.5h30V10.7h-30V8.3h29.6C78.6,8.3,80,9.7,80,11.4z"/>
	<rect x="47.3" y="14.9" class="st1" width="17.7" height="3.7"/>
	<polygon class="st2" points="33.3,24.5 32.7,25.7 32.7,24.5 	"/>
	<rect x="47.3" y="23.6" class="st1" width="17.7" height="3.7"/>
	<rect x="47.3" y="32.3" class="st1" width="17.7" height="3.7"/>
	<rect x="47.3" y="41" class="st1" width="17.7" height="3.7"/>
	<polygon class="st2" points="33,53.4 32.7,53.4 32.7,52.8 	"/>
	<rect x="47.3" y="49.7" class="st1" width="17.7" height="3.7"/>
	<polygon class="st3" points="77.3,10.7 77.3,68.2 47.3,68.2 47.3,62.1 65,62.1 65,58.4 47.3,58.4 47.3,53.4 65,53.4 65,49.7 
		47.3,49.7 47.3,44.7 65,44.7 65,41 47.3,41 47.3,36 65,36 65,32.3 47.3,32.3 47.3,27.3 65,27.3 65,23.6 47.3,23.6 47.3,18.6 
		65,18.6 65,14.9 47.3,14.9 47.3,10.7 	"/>
	<rect x="47.3" y="58.4" class="st1" width="17.7" height="3.7"/>
	<g>
		<g>
			<g>
				<path class="st4" d="M36,28.4l-6.5,23.1h-3.1l-2.9-12c-0.7-2.9-1.2-5.2-1.5-7.5h-0.1c-0.4,2.3-0.9,4.6-1.8,7.5l-3.3,12h-3.1
					L7.8,28.4H11l2.7,11.7c0.7,2.9,1.3,5.8,1.7,8h0.1c0.4-2.3,1.1-5,1.9-8l3.1-11.7h3.1l2.8,11.7c0.7,2.7,1.3,5.5,1.6,7.9h0.1
					c0.5-2.5,1.1-5.1,1.8-8L33,28.4H36z"/>
			</g>
		</g>
	</g>
</g>
</svg>
