<?xml version="1.0" encoding="utf-8"?>
<!-- Generator: Adobe Illustrator 23.0.1, SVG Export Plug-In . SVG Version: 6.00 Build 0)  -->
<svg version="1.1" id="Layer_1" xmlns="http://www.w3.org/2000/svg" xmlns:xlink="http://www.w3.org/1999/xlink" x="0px" y="0px"
	 viewBox="0 0 80 80" style="enable-background:new 0 0 80 80;" xml:space="preserve">
<style type="text/css">
	.st0{fill:#EFF2F3;}
	.st1{fill:#DADEDE;}
	.st2{fill:#6BC5AE;}
</style>
<g>
	<path class="st0" d="M5.3,17v58.1c0,2.1,1.8,3.9,3.9,3.9h57c2.1,0,3.9-1.8,3.9-3.9l0.1-71.3c-0.1-2.1-1.9-3.9-4-3.9H22.4L5.3,17z"
		/>
	<path class="st1" d="M18.7,17H5.3L22.4,0l-0.1,13.4C22.3,15.4,20.7,17,18.7,17z"/>
	<rect x="14.6" y="26" class="st1" width="46.4" height="2.9"/>
	<rect x="23.6" y="14.8" class="st2" width="28.3" height="6.1"/>
	<rect x="14.6" y="34.8" class="st1" width="46.4" height="2.9"/>
	<rect x="14.6" y="43.4" class="st1" width="46.4" height="2.9"/>
	<rect x="14.6" y="52.1" class="st1" width="46.4" height="2.9"/>
	<rect x="14.6" y="60.8" class="st1" width="46.4" height="2.9"/>
	<rect x="14.6" y="69.5" class="st1" width="46.4" height="2.9"/>
	<g>
		<rect x="0.8" y="54.9" class="st2" width="78.4" height="25.1"/>
		<path class="st0" d="M35.6,75.6H23.9v-1.9l8.3-12.1h-8v-2.3h11.3v1.9l-8.3,12.1h8.5v2.3H35.6z M38.4,75.6V59.3h2.6v16.4H38.4z
			 M56.2,64.3c0,1.8-0.5,3-1.6,3.9c-1.1,0.9-2.8,1.4-4.8,1.4h-1.8v6.1h-2.6V59.3h4.8c2,0,3.6,0.4,4.6,1.3
			C55.7,61.4,56.2,62.6,56.2,64.3z M48.1,67.3h1.4c1.4,0,2.4-0.3,3-0.8s1-1.3,1-2.3c0-1-0.3-1.6-0.9-2.1c-0.6-0.5-1.5-0.7-2.6-0.7
			h-1.9V67.3z"/>
	</g>
</g>
</svg>
